Name: deadmau5: Meowingtons Hax 2k11 Toronto
Label : Parlophone
Product Code : P9540959
Release Date : 20-02-12
Size : 5.11 GB
Genre : Electronic
Style : House, Trance, Progressive, Electro, Dubstep


Tracklist:

01. Where My Keys
02. Bad Selection
03. Maths
04. Reward Is More Cheese
05. Some Chords/Tiny Dancer
06. Secondary Complications/Sometimes Things Get, Whatever
07. Cthulhu Sleeps
08. Arguru
09. Asdfghjkl
10. Hr 8938 Cephei
11. Jaded
12. Slip
13. Aural Psynapse
14. October/Raise Your Weapon
15. Raise Your Weapon (Noisia Remix)
16. Sofi Needs A Ladder
17. One Trick Pony
18. FML/I Remember
19. Professional Griefers
20. Moar Ghosts N Stuff
21. Ghosts N Stuff
22. Limit Break
23. Animal Rights
24. Get In The Cart, Pig
25. Strobe


General

Complete name : deadmau5 Meowingtons Hax 2k11 TORONTO HD.mp4
Format : MPEG-4
Format profile : Base Media
Codec ID : isom
File size : 5.12 GiB
Duration : 1h 53mn
Overall bit rate : 6 447 Kbps
Movie name : deadmau5: Meowingtons Hax 2k11 - Toronto
Genre : Concert Films
Recorded date : UTC 2012-02-07 08:00:00
Tagged date : UTC 2012-02-13 11:50:09
Cover : Yes

Video

ID : 2
Format : AVC
Format/Info : Advanced Video Codec
Format profile : High@L3.0
Format settings, CABAC : Yes
Format settings, ReFrames : 4 frames
Format settings, GOP : M=1, N=25
Codec ID : avc1
Codec ID/Info : Advanced Video Coding
Duration : 1h 53mn
Bit rate mode : Variable
Bit rate : 6 279 Kbps
Width : 1 280 pixels
Height : 674 pixels
Display aspect ratio : 1.899
Frame rate mode : Constant
Frame rate : 23.976 fps
Color space : YUV
Chroma subsampling : 4:2:0
Bit depth : 8 bits
Scan type : Progressive
Bits/(Pixel*Frame) : 0.304
Stream size : 4.98 GiB (97%)
Writing library : x264 core 114 r1924 08d04a4

Audio

ID : 1
Format : AAC
Format/Info : Advanced Audio Codec
Format profile : LC
Codec ID : 40
Duration : 1h 53mn
Bit rate mode : Variable
Bit rate : 160 Kbps
Maximum bit rate : 207 Kbps
Channel(s) : 2 channels
Channel positions : Front: L R
Sampling rate : 48.0 KHz
Compression mode : Lossy
Stream size : 130 MiB (2%)
Language : English

Text

ID : 3
Format : Apple text
Codec ID : text
Duration : 1h 53mn
Bit rate mode : Variable
Bit rate : 1 bps
Stream size : 841 Bytes (0%)
Encoded date : UTC 2012-02-13 11:50:09
Tagged date : UTC 2012-02-13 11:50:09

 
http://s17.postimage.org/kmlq3pk3z/Screen_01.png 
http://s18.postimage.org/a8illlmop/Screen_02.png 
http://s14.postimage.org/li1o5ovzl/Screen_03.png 
http://s7.postimage.org/bye776z6z/Screen_04.png 
http://s18.postimage.org/k8i3f8nbt/Screen_05.png 
http://s7.postimage.org/9masncbzf/Screen_08.png 
http://s15.postimage.org/v2rqbt6gr/Screen_07.png

Powered By Blazinseedboxes.com